<svg width="15" height="18" viewBox="0 0 15 18" fill="none" xmlns="http://www.w3.org/2000/svg">
<path d="M0.774094 6.61686C-0.777658 9.25755 0.208819 13.2649 1.9248 15.6948C2.78135 16.9096 3.64855 18 4.83633 18C4.85872 18 4.88117 17.9996 4.90416 17.9987C5.46221 17.9769 5.86548 17.8084 6.25539 17.6456C6.69314 17.4626 7.14588 17.2735 7.85601 17.2735C8.53159 17.2735 8.96272 17.4565 9.37965 17.6334C9.79057 17.8077 10.2138 17.9881 10.8392 17.9766C12.1771 17.9521 12.9986 16.7755 13.7234 15.7374C14.4796 14.6536 14.859 13.6013 14.987 13.1991L14.9922 13.1831C15.0166 13.1117 14.9822 13.0337 14.9123 13.0022C14.9104 13.0013 14.9033 12.9984 14.9013 12.9976C14.6657 12.9031 12.5989 12.004 12.5772 9.5534C12.5571 7.56242 14.1276 6.50809 14.4426 6.317L14.4573 6.30803C14.4914 6.28649 14.5152 6.25232 14.5233 6.21325C14.5313 6.17424 14.5229 6.13363 14.5 6.10082C13.416 4.54503 11.7544 4.31056 11.0854 4.28235C10.9883 4.27285 10.8881 4.26807 10.7875 4.26807C10.0018 4.26807 9.24912 4.55908 8.64443 4.7929C8.22702 4.95431 7.86648 5.09371 7.61781 5.09371C7.33839 5.09371 6.97581 4.9526 6.55593 4.78924C5.99444 4.5707 5.35804 4.32307 4.68432 4.32307C4.66825 4.32307 4.65242 4.32325 4.63683 4.32354C3.07034 4.34615 1.59014 5.22502 0.774094 6.61686Z" fill="#ABB0BB"/>
<path d="M11.087 0.000113396C10.1384 0.0380019 9.00047 0.610638 8.32031 1.3919C7.74228 2.04857 7.17761 3.14345 7.32637 4.24705C7.3357 4.3161 7.39299 4.36939 7.46383 4.37476C7.52786 4.37966 7.59321 4.38214 7.65833 4.3822C8.58589 4.3822 9.58651 3.87897 10.2699 3.06867C10.9891 2.21305 11.3527 1.11499 11.2427 0.131425C11.2341 0.0543495 11.1649 -0.00289644 11.087 0.000113396Z" fill="#ABB0BB"/>
</svg>
