<svg width="18" height="18" viewBox="0 0 18 18" fill="none" xmlns="http://www.w3.org/2000/svg">
<path d="M9.00696 3.25729e-06C4.03608 -0.00418034 0.00418685 4.02216 3.25729e-06 8.99304C-0.00418034 13.9639 4.02216 17.9958 8.99304 18C13.9633 17.9958 17.9923 13.9702 18 9C18 4.0319 13.9751 0.00418685 9.00696 3.25729e-06ZM8.99304 16.5023C4.8497 16.5023 1.49073 13.1433 1.49073 9C1.49073 4.85666 4.8497 1.49769 8.99304 1.49769C13.135 1.50188 16.4912 4.85807 16.4953 9C16.4953 13.1433 13.1364 16.5023 8.99304 16.5023Z" fill="#ABB0BB"/>
<path d="M11.4241 8.56125C12.026 8.222 12.3513 7.54285 12.2391 6.86156C12.0998 5.80972 10.846 5.41263 9.85679 5.32906V3.7478H8.88155V5.31514H8.22677V3.7478H7.25153V5.31514H5.28711V6.32521H6.01854C6.34595 6.32521 6.50615 6.42274 6.50615 6.68743V11.0272C6.50615 11.3894 6.32503 11.5009 6.12998 11.5009H5.38463V12.5319H7.27938V14.134H8.26157V12.5319H8.91636V14.134H9.87071V12.5319H10.0797C12.0859 12.5319 12.7546 11.5497 12.7546 10.2122C12.7386 9.42364 12.1918 8.74516 11.4241 8.56125ZM8.22673 6.3879H8.92332C9.41094 6.3879 10.3722 6.4715 10.3722 7.26561C10.4057 7.78388 10.0302 8.23806 9.51542 8.30352H8.22673C8.22673 8.30352 8.22673 6.3879 8.22673 6.3879ZM9.30645 11.4034V11.3964H8.22673V9.3066H9.48062C9.77319 9.3066 10.8738 9.40412 10.8738 10.1843C10.8738 10.9645 10.3514 11.4034 9.30645 11.4034Z" fill="#ABB0BB"/>
</svg>
