<svg width="18" height="18" viewBox="0 0 18 18" fill="none" xmlns="http://www.w3.org/2000/svg">
<path d="M13.1276 0H4.87244C2.18573 0 0 2.18573 0 4.87244V13.1277C0 15.8143 2.18573 18 4.87244 18H13.1277C15.8143 18 18 15.8143 18 13.1277V4.87244C18 2.18573 15.8143 0 13.1276 0V0ZM16.9448 13.1277C16.9448 15.2324 15.2324 16.9448 13.1276 16.9448H4.87244C2.76759 16.9448 1.05524 15.2324 1.05524 13.1277V4.87244C1.05524 2.76759 2.76759 1.05524 4.87244 1.05524H13.1277C15.2324 1.05524 16.9448 2.76759 16.9448 4.87244V13.1277Z" fill="#ABB0BB"/>
<path d="M8.99986 4.07825C6.28596 4.07825 4.07812 6.28609 4.07812 8.99998C4.07812 11.7139 6.28596 13.9217 8.99986 13.9217C11.7138 13.9217 13.9216 11.7139 13.9216 8.99998C13.9216 6.28609 11.7138 4.07825 8.99986 4.07825V4.07825ZM8.99986 12.8665C6.86797 12.8665 5.13336 11.132 5.13336 8.99998C5.13336 6.86809 6.86797 5.13348 8.99986 5.13348C11.1319 5.13348 12.8664 6.86809 12.8664 8.99998C12.8664 11.132 11.1319 12.8665 8.99986 12.8665V12.8665Z" fill="#ABB0BB"/>
<path d="M14.0398 2.33032C13.2378 2.33032 12.5854 2.98277 12.5854 3.78464C12.5854 4.58664 13.2378 5.23909 14.0398 5.23909C14.8418 5.23909 15.4942 4.58664 15.4942 3.78464C15.4942 2.98264 14.8418 2.33032 14.0398 2.33032ZM14.0398 4.18372C13.8198 4.18372 13.6407 4.00464 13.6407 3.78464C13.6407 3.5645 13.8198 3.38556 14.0398 3.38556C14.2599 3.38556 14.439 3.5645 14.439 3.78464C14.439 4.00464 14.2599 4.18372 14.0398 4.18372Z" fill="#ABB0BB"/>
</svg>
