<svg width="16" height="18" viewBox="0 0 16 18" fill="none" xmlns="http://www.w3.org/2000/svg">
<path d="M9.64287 18C10.2606 18 10.7993 17.4751 10.7993 16.8733V14.242H11.5715C12.0348 14.242 12.3436 13.941 12.3436 13.4897V5.97437H3.08496V13.4898C3.08496 13.9411 3.39383 14.2421 3.85713 14.2421H4.62936V16.8734C4.62936 17.4752 5.16794 18 5.78579 18C6.40347 18 6.9421 17.4752 6.9421 16.8734V14.2421H8.4865V16.8734C8.48644 17.4751 9.02514 18 9.64287 18Z" fill="#ABB0BB"/>
<path d="M14.2722 13.4898C14.8899 13.4898 15.4285 12.965 15.4285 12.3631V7.10057C15.4285 6.50191 14.8899 5.97437 14.2722 5.97437C13.6544 5.97437 13.1157 6.50191 13.1157 7.10057V12.3631C13.1157 12.9649 13.6543 13.4898 14.2722 13.4898Z" fill="#ABB0BB"/>
<path d="M1.15631 13.4898C1.77411 13.4898 2.31274 12.965 2.31274 12.3631V7.10057C2.31274 6.50191 1.77417 5.97437 1.15631 5.97437C0.538576 5.97437 0 6.50191 0 7.10057V12.3631C0 12.9649 0.538576 13.4898 1.15631 13.4898Z" fill="#ABB0BB"/>
<path d="M11.417 0.113521C11.2626 -0.0378404 11.0328 -0.0378404 10.8784 0.113521L9.84274 1.11917L9.79497 1.16566C9.18087 0.866064 8.49236 0.716444 7.72562 0.715003C7.72185 0.715003 7.71816 0.714883 7.7144 0.714883H7.71427C7.71039 0.714883 7.70681 0.715003 7.70293 0.715003C6.93625 0.716444 6.24774 0.866064 5.6337 1.16566L5.5858 1.11917L4.5502 0.113521C4.39571 -0.0378404 4.166 -0.0378404 4.01162 0.113521C3.85713 0.264042 3.85713 0.48742 4.01162 0.63782L5.01344 1.61404C4.69064 1.82403 4.39792 2.08098 4.14337 2.37487C3.53396 3.07864 3.14525 3.99456 3.0918 4.98694C3.09131 4.99727 3.09026 5.00748 3.08977 5.01781C3.0865 5.08538 3.08496 5.15332 3.08496 5.22149H12.3436C12.3436 5.15332 12.342 5.08538 12.3388 5.01781C12.3383 5.00748 12.3373 4.99727 12.3367 4.98694C12.2834 3.99456 11.8945 3.07858 11.2851 2.37493C11.0307 2.08104 10.7378 1.82409 10.415 1.6141L11.417 0.63788C11.5715 0.48742 11.5715 0.264042 11.417 0.113521ZM5.78431 3.90795C5.46484 3.90795 5.20585 3.65562 5.20585 3.34437C5.20585 3.03312 5.46484 2.78079 5.78431 2.78079C6.10378 2.78079 6.36278 3.03312 6.36278 3.34437C6.36278 3.65562 6.10378 3.90795 5.78431 3.90795ZM9.64429 3.90795C9.32482 3.90795 9.06583 3.65562 9.06583 3.34437C9.06583 3.03312 9.32482 2.78079 9.64429 2.78079C9.96376 2.78079 10.2228 3.03312 10.2228 3.34437C10.2228 3.65562 9.96376 3.90795 9.64429 3.90795Z" fill="#ABB0BB"/>
</svg>
