<svg width="14" height="14" viewBox="0 0 14 14" fill="none" xmlns="http://www.w3.org/2000/svg">
<path d="M0.241613 6.79823L3.66529 8.74796C3.79771 8.82262 3.95405 8.81728 4.08064 8.73263L7.12806 6.70824L5.28351 8.57598C5.18959 8.6713 5.13592 8.80729 5.13592 8.9506V13.5C5.13592 13.9799 5.67202 14.1819 5.92344 13.8006L7.4034 11.5522L11.0633 13.9339C11.32 14.1026 11.649 13.9333 11.7085 13.598L13.9912 0.599738C14.0594 0.209124 13.7193 -0.109499 13.4032 0.0358145L0.27778 5.88502C-0.0745629 6.04233 -0.0973136 6.60559 0.241613 6.79823V6.79823ZM12.9761 1.29964L10.97 12.7228L7.50199 10.4657C7.31298 10.3424 7.06972 10.3971 6.93555 10.5997L6.01094 12.0042V9.17524L10.9992 4.12526C11.3941 3.72598 10.9403 3.01607 10.4893 3.3187L3.84497 7.73277L1.51623 6.40695L12.9761 1.29964Z" fill="#ABB0BB"/>
</svg>
